<svg xmlns="http://www.w3.org/2000/svg" viewBox="0 0 120 120" role="img" aria-label="Crown">
  <circle cx="60" cy="60" r="54" fill="#2b2d33"/>
  <g fill="#e02424">
    <path d="M60 22a28 28 0 1 0 0 56 28 28 0 0 0 0-56zm0 8a20 20 0 1 1 0 40 20 20 0 0 1 0-40z" opacity=".25"/>
    <circle cx="60" cy="60" r="14" fill="none" stroke="#e02424" stroke-width="6"/>
    <path d="M60 34v8M60 78v8M34 60h8M78 60h8M42 42l6 6M72 72l6 6M78 42l-6 6M48 72l-6 6" stroke="#e02424" stroke-width="5" stroke-linecap="round"/>
    <ellipse cx="52" cy="68" rx="14" ry="16"/>
    <circle cx="46" cy="58" r="3" fill="#fff"/>
    <path d="M38 72c4 8 12 14 22 14 6 0 10-2 14-6" fill="none" stroke="#e02424" stroke-width="4" stroke-linecap="round"/>
    <path d="M66 64c6-2 14 0 20 8-6 4-12 6-18 4" fill="#e02424"/>
  </g>
</svg>
